<svg xmlns="http://www.w3.org/2000/svg" width="32" height="32" viewBox="0 0 24 24" fill="none" stroke="#10b981" stroke-width="3" stroke-linecap="round" stroke-linejoin="round">
    <path d="M10 5.172a2 2 0 0 0-1.414.586l-1.172 1.172A2 2 0 0 1 6 7.5V10h12V7.5a2 2 0 0 1 1.414-.586l1.172-1.172A2 2 0 0 0 19.172 5.172L17 3a2 2 0 0 0-2.828 0L13 4.172 11.828 3a2 2 0 0 0-2.828 0L7 5.172Z" />
    <path d="M20 10v10a2 2 0 0 1-2 2H6a2 2 0 0 1-2-2V10" />
    <path d="M12 14v4" />
    <path d="M10 18h4" />
</svg>
