<?xml version="1.0" encoding="UTF-8" standalone="no"?>
<!DOCTYPE svg PUBLIC "-//W3C//DTD SVG 1.1//EN" "http://www.w3.org/Graphics/SVG/1.1/DTD/svg11.dtd">
<svg width="100%" height="100%" viewBox="0 0 428 480" version="1.1" xmlns="http://www.w3.org/2000/svg" xmlns:xlink="http://www.w3.org/1999/xlink" xml:space="preserve" xmlns:serif="http://www.serif.com/" style="fill-rule:evenodd;clip-rule:evenodd;stroke-linejoin:round;stroke-miterlimit:2;">
    <g transform="matrix(1,0,0,1,-86.355619,-76.30061)">
        <g id="Artboard3" transform="matrix(1,0,0,3,0,750)">
            <rect x="0" y="-250" width="600" height="200" style="fill:none;"/>
            <g id="isotipo_negativo_grupo_2" transform="matrix(0.505494,0,0,0.168498,-211.807087,-329.778893)">
                <path d="M1053.4,1247.75C1017.94,1211.06 977.72,1177.17 940.126,1142.35C903.579,1108.53 874.589,1066.43 872.408,1015.23C871.033,982.953 883.775,970.651 896.376,943.377C900.355,934.765 901.766,913.477 904.528,902.857C915.414,860.994 940.067,823.12 969.764,792.205C976.93,825.582 983.519,859.081 989.527,892.685C1004.579,862.988 1032.072,806.2 1045.376,805.732C1049.868,837.233 1048.746,886.033 1058.257,887.654C1079.075,891.203 1099.153,899.445 1117.3,912.347C1137.75,926.888 1144.43,956.063 1164.32,968.346C1188.88,982.865 1220.88,983.61 1247.2,993.378C1288.28,1008.63 1272.47,1043.75 1252,1068.52C1223.82,1102.6 1195.06,1099.37 1154.78,1102.62C1138.34,1103.95 1120.72,1110.36 1106.19,1116.65L1105.04,1117.61C1100.48,1121.37 1092.68,1125.77 1088.48,1129.48C1082.33,1134.92 1074.32,1145.7 1069.57,1152.42C1068.41,1156.51 1061.59,1168.73 1059.57,1175.98C1052.65,1200.8 1053.39,1222.48 1053.4,1247.75Z" style="stroke:rgb(254,254,254);stroke-width:1.98px;"/>
                <path d="M809.581,649.115C860.425,638.642 905.061,630.118 958.764,626.983C1121.03,617.511 1290.43,650.199 1430.33,735.312C1431.29,735.891 1432.21,736.585 1433.09,737.248C1434.64,793.222 1433.62,851.926 1433.81,908.136C1433.96,948.718 1435.17,999.648 1431.82,1039.15C1421.58,1168.46 1366.97,1290.24 1277.22,1383.89C1201.61,1462.58 1111.85,1526.33 1012.64,1571.8C972.605,1551.54 933.545,1530.25 896.329,1505.07C893.086,1502.87 877.77,1492.66 870.409,1487.53C833.256,1461.64 798.349,1432.67 766.059,1400.93C766.059,1400.93 740.289,1374.57 734.852,1368.36C714.009,1344.78 694.991,1319.66 677.963,1293.21C628.241,1214.14 598.861,1124.01 592.445,1030.83C589.992,995.087 591.062,954.768 591.087,918.548L590.888,738.545C632.829,711.284 689.874,687.163 736.907,670.221C751.203,665.071 799.52,651.187 809.581,649.115ZM1067.403,1476.772C1049.508,1487.35 1052.464,1485.64 1067.4,1476.78L1067.403,1476.772ZM1067.403,1476.772C1085.813,1465.889 1104.852,1453.966 1118.1,1444.3C1126.51,1439.7 1139.81,1429.37 1147.72,1423.29C1173.63,1403.75 1198.17,1382.44 1221.16,1359.52C1315.04,1265.38 1364.1,1161.29 1374.92,1028.19C1377.4,997.764 1376.02,955.978 1376.01,924.672L1375.93,772.939C1353.7,756.903 1309.1,738.067 1283.14,728.978C1170.13,689.131 1049.68,674.885 930.498,687.271C911.104,689.273 871.269,694.062 852.817,698.985C845.053,700.149 832.259,702.86 824.537,704.898C817.068,706.844 800.457,710.732 793.692,713.108C788.131,714.076 771.145,719.933 765.282,721.914C726.975,734.854 682.835,751.945 648.925,774.148L648.7,915.653C648.662,948.186 647.882,989.814 649.478,1021.75C651.906,1070.32 668.372,1145.55 690.524,1189.14C694.742,1202.047 700.793,1215.861 708.489,1230.291C724.336,1215.141 738.056,1202.623 752.977,1185.9C785.974,1148.92 811.64,1109.04 836.468,1066.46C838.718,1068.01 841.706,1076.25 842.913,1079.21C888.747,1191.59 1020.29,1233.68 1067.24,1345.97C1086.019,1390.887 1085.15,1431.625 1067.403,1476.772Z" style="stroke:rgb(254,254,254);stroke-width:1.98px;"/>
            </g>
        </g>
    </g>
</svg>
