<?xml version="1.0" encoding="UTF-8" standalone="no"?>
<!DOCTYPE svg PUBLIC "-//W3C//DTD SVG 1.1//EN" "http://www.w3.org/Graphics/SVG/1.1/DTD/svg11.dtd">
<svg width="100%" height="100%" viewBox="0 0 521 96" version="1.1" xmlns="http://www.w3.org/2000/svg" xmlns:xlink="http://www.w3.org/1999/xlink" xml:space="preserve" xmlns:serif="http://www.serif.com/" style="fill-rule:evenodd;clip-rule:evenodd;stroke-linejoin:round;stroke-miterlimit:2;">
    <g transform="matrix(1,0,0,1,-39.755605,-702.30061)">
        <g id="Artboard1" transform="matrix(1,0,0,1,0,650)">
            <rect x="0" y="0" width="600" height="200" style="fill:none;"/>
            <g transform="matrix(1,0,0,1,8.403218,3.196373)">
                <g id="isotipo_positivo_grupo" transform="matrix(0.100802,0,0,0.100802,-28.204742,-13.937385)">
                    <path d="M809.581,649.115C860.425,638.642 905.061,630.118 958.764,626.983C1121.03,617.511 1290.43,650.199 1430.33,735.312C1431.29,735.891 1432.21,736.585 1433.09,737.248C1434.64,793.222 1433.62,851.926 1433.81,908.136C1433.96,948.718 1435.17,999.648 1431.82,1039.15C1421.58,1168.46 1366.97,1290.24 1277.22,1383.89C1201.61,1462.58 1111.85,1526.33 1012.64,1571.8C972.605,1551.54 933.545,1530.25 896.329,1505.07C893.086,1502.87 877.77,1492.66 870.409,1487.53C833.256,1461.64 798.349,1432.67 766.059,1400.93C766.059,1400.93 740.289,1374.57 734.852,1368.36C714.009,1344.78 694.991,1319.66 677.963,1293.21C628.241,1214.14 598.861,1124.01 592.445,1030.83C589.992,995.087 591.062,954.768 591.087,918.548L590.888,738.545C632.829,711.284 689.874,687.163 736.907,670.221C751.203,665.071 799.52,651.187 809.581,649.115ZM836.468,1066.46C811.64,1109.04 785.974,1148.92 752.977,1185.9C737.889,1202.81 724.029,1215.42 707.957,1230.8C773.043,1342.26 862.73,1420.36 972.718,1485.93C984.052,1492.43 999.692,1501.94 1011.07,1507.36C1030.42,1498.8 1049.21,1487.57 1067.4,1476.78C1085.15,1431.63 1086.02,1390.89 1067.24,1345.97C1020.29,1233.68 888.747,1191.59 842.913,1079.21C841.706,1076.25 838.718,1068.01 836.468,1066.46ZM1053.4,1247.75C1053.39,1222.48 1052.65,1200.8 1059.57,1175.98C1061.59,1168.73 1068.41,1156.51 1069.57,1152.42C1074.32,1145.7 1082.33,1134.92 1088.48,1129.48C1092.68,1125.77 1100.48,1121.37 1105.04,1117.61L1106.19,1116.65C1120.72,1110.36 1138.34,1103.95 1154.78,1102.62C1195.06,1099.37 1223.82,1102.6 1252,1068.52C1272.47,1043.75 1288.28,1008.63 1247.2,993.378C1220.88,983.61 1188.88,982.865 1164.32,968.346C1144.43,956.063 1137.75,926.888 1117.3,912.347C1079.5,885.473 1033.32,878.813 989.527,892.685C983.519,859.081 976.93,825.582 969.764,792.205C940.067,823.12 915.414,860.994 904.528,902.857C901.766,913.477 900.355,934.765 896.376,943.377C883.775,970.651 871.033,982.953 872.408,1015.23C874.589,1066.43 903.579,1108.53 940.126,1142.35C977.72,1177.17 1017.94,1211.06 1053.4,1247.75ZM930.498,687.271C911.104,689.273 871.269,694.062 852.817,698.985C845.053,700.149 832.259,702.86 824.537,704.898C817.068,706.844 800.457,710.732 793.692,713.108C788.131,714.076 771.145,719.933 765.282,721.914C726.975,734.854 682.835,751.945 648.925,774.148L648.7,915.653C648.662,948.186 647.882,989.814 649.478,1021.75C651.906,1070.32 668.372,1145.55 690.524,1189.14C746.419,1146.04 805.146,1044.16 834.991,981.454C841.297,968.207 850.934,950.444 856.446,936.92C863.177,920.405 866.813,897.518 872.8,879.953C888.899,833.13 918.718,790.175 954.9,756.534C959.802,751.977 982.788,732.013 988.633,734.248C997.649,756.248 1003.19,797.456 1012.43,823.879C1030.67,796.003 1048.11,766.666 1077.28,748.597C1080.05,784.679 1081.23,820.867 1080.82,857.053C1111.46,864.253 1150.58,883.345 1165.28,912.481C1186.32,954.161 1233,953.189 1273.12,965.055C1305.53,974.643 1326.84,970.971 1316.05,1015.24C1302.18,1072.12 1265.59,1125.17 1203.45,1131.83C1149.24,1134.46 1094.45,1143.23 1093.65,1210.56C1092.64,1295.67 1137.81,1354.86 1118.1,1444.3C1126.51,1439.7 1139.81,1429.37 1147.72,1423.29C1173.63,1403.75 1198.17,1382.44 1221.16,1359.52C1315.04,1265.38 1364.1,1161.29 1374.92,1028.19C1377.4,997.764 1376.02,955.978 1376.01,924.672L1375.93,772.939C1353.7,756.903 1309.1,738.067 1283.14,728.978C1170.13,689.131 1049.68,674.885 930.498,687.271Z" style="fill:rgb(1,1,1);"/>
                </g>
                <g transform="matrix(1.7974,0,0,1.7974,-208.173463,-30.417928)">
                    <g transform="matrix(50,0,0,50,425.691177,86.618886)">
                    </g>
                    <text x="188.941px" y="86.619px" style="font-family:'Outfit-SemiBold', 'Outfit';font-weight:600;font-size:50px;">Ur<tspan x="244.041px " y="86.619px ">b</tspan>anDog</text>
                </g>
            </g>
        </g>
    </g>
</svg>
